<svg width="77" height="26" viewBox="0 0 77 26" fill="none" xmlns="http://www.w3.org/2000/svg">
<path d="M37.4352 9.13553H30.8989L30.5333 13.347H36.6798L36.8448 13.0495H38.3209L37.2853 14.8854L30.3926 14.9027L30.0316 19.0323H37.8284L37.6958 20.5753H29.9025L29.5715 24.3808C29.5435 24.8026 29.3824 25.2052 29.1114 25.5283C29.0038 25.672 28.8648 25.789 28.7055 25.8708C28.5459 25.9526 28.369 25.9967 28.19 25.9999H24.7027L25.5342 24.4569H26.3322C26.4504 24.4531 26.5666 24.4236 26.6724 24.3705C26.7783 24.3172 26.8716 24.2408 26.9457 24.1479C27.1331 23.933 27.2442 23.6617 27.2617 23.3764L27.5061 20.5695H19.7543L19.8881 19.0265H27.6411L27.9997 14.8969H20.3667L20.5016 13.3528H28.1335L28.5002 9.14129H21.0667L21.1993 7.59831H36.824L37.0604 7.16471H38.5365L37.4352 9.13553Z" fill="white"/>
<path d="M76.2 7.43686C76.0421 7.65536 75.9081 7.89082 75.7999 8.13801C75.6916 8.41407 75.6273 8.70554 75.6096 9.00176L75.4643 10.6751L70.3314 14.9119H74.9592L75.1864 14.5879L76.7686 14.6086L75.6292 16.471H69.1113L68.424 24.3797C68.3967 24.803 68.2321 25.2065 67.9558 25.5271C67.8488 25.6687 67.7115 25.7845 67.5545 25.8662C67.3974 25.9478 67.2238 25.9929 67.0471 25.9988H63.1227L63.9726 24.4558H65.1674C65.2871 24.4511 65.405 24.4197 65.511 24.3635C65.6172 24.3072 65.7104 24.2275 65.782 24.1306C65.9629 23.9191 66.0705 23.6536 66.0888 23.3752L66.6896 16.4653H58.7786L58.9124 14.9211H67.1659L73.1498 9.5207L73.1959 8.97985H60.2628L60.3954 7.43686H76.2Z" fill="white"/>
<path d="M10.6706 11.4246L10.1851 11.533L9.61077 13.3136H10.9254L10.7928 14.8566L7.00569 14.8589L6.78889 17.3429H10.3569L10.2231 18.887H6.65512L6.18346 24.3105C6.1575 24.7453 5.99553 25.1616 5.72218 25.4994C5.6162 25.6459 5.47812 25.766 5.31856 25.85C5.15892 25.934 4.98205 25.9797 4.80193 25.9838H2.37559L3.06867 24.4408C3.18885 24.4378 3.30713 24.4061 3.41347 24.3497C3.51972 24.2932 3.61194 24.2125 3.68217 24.1144C3.86306 23.893 3.9705 23.6197 3.98892 23.3337L4.38332 18.8893H0.795708L0.930633 17.3463H4.51709L4.73273 14.8612H0.966382L1.10131 13.3182H2.35599L2.09191 11.5388L1.64446 11.4316L1.73903 10.3245L4.51939 10.8895L4.76618 13.3182H7.19828L7.86944 10.8895L10.7674 10.3245L10.6706 11.4246Z" fill="white"/>
<path d="M18.5504 9.07902H15.6213C15.3535 9.08625 15.0912 9.15623 14.8544 9.28198C14.5496 9.45569 14.3111 9.72737 14.1786 10.0535L13.9399 12.8062H19.0832L18.9529 14.2915H18.1364L17.1158 25.978H14.8232L15.8404 14.2915H13.8096L13.1419 21.9845L10.1897 25.9561L10.3673 23.9057L10.7409 23.2876L12.1063 7.54642H14.3989L14.3435 8.08727C14.5388 7.86747 14.795 7.71158 15.0793 7.63983C15.2802 7.58801 15.4867 7.55617 15.6939 7.54642H17.9057L18.1641 7.08398H19.7382L18.5504 9.07902Z" fill="white"/>
<path fill-rule="evenodd" clip-rule="evenodd" d="M42.0272 20.5534L42.0503 20.5257L42.372 20.257C42.6788 20.0103 43.0334 19.8302 43.4134 19.73C43.6357 19.6628 43.8675 19.6305 44.0995 19.6343H56.7721C56.6301 19.8225 56.513 20.0292 56.4238 20.2478C56.3247 20.5214 56.2665 20.8081 56.2497 21.0988L55.9544 24.495H56.7905L56.6614 25.978H38.4731L38.6034 24.495H39.2803L39.6955 19.6273H42.108L42.0272 20.5534ZM43.9277 21.1876C43.7245 21.2063 43.5236 21.2463 43.3292 21.3087C43.0595 21.3913 42.8017 21.5094 42.5623 21.6593C42.3728 21.8029 42.1985 21.9663 42.0422 22.1459C41.9756 22.2198 41.9178 22.3011 41.8693 22.3881L41.6847 24.495H43.8977L44.1906 21.1738L43.9277 21.1876ZM46.3471 24.495H48.6997L48.996 21.1738H46.6458L46.3471 24.495ZM51.1514 24.495H53.5419L53.8314 21.1738H51.4408L51.1514 24.495Z" fill="white"/>
<path d="M2.87378 22.9543L0 25.9769L0.14069 24.3589L0.734589 23.494L1.1728 20.0667H3.22435L2.87378 22.9543Z" fill="white"/>
<path d="M9.42511 23.494L9.86678 24.3589L9.72609 25.9769L7.37818 22.9543L7.5304 20.0667H9.5831L9.42511 23.494Z" fill="white"/>
<path fill-rule="evenodd" clip-rule="evenodd" d="M42.6776 14.4529C42.6862 14.4516 42.6946 14.4484 42.7019 14.4437C42.7092 14.439 42.7155 14.4325 42.7203 14.4253C42.7924 14.3543 42.8858 14.273 42.9994 14.1819C43.292 13.9558 43.6248 13.7881 43.9796 13.6861C44.1907 13.6233 44.4083 13.5822 44.6277 13.565H56.9842C56.8428 13.7472 56.7272 13.9488 56.6418 14.1635C56.5553 14.4208 56.5037 14.6892 56.4884 14.9603L56.3016 17.1203C56.2737 17.5256 56.1213 17.9128 55.8656 18.2274C55.7649 18.367 55.6335 18.4815 55.4816 18.5618C55.3297 18.6421 55.1608 18.6856 54.9892 18.6898H40.1614L40.6077 13.5627H42.7561L42.6776 14.4529ZM44.3186 15.0526C44.0932 15.0784 43.8715 15.1304 43.6579 15.2071C43.4436 15.2966 43.2447 15.4197 43.0686 15.5715C42.8383 15.7703 42.6504 16.014 42.5162 16.2877L42.349 18.2043L43.1562 17.2091H53.3782C53.5905 17.2098 53.7951 17.1266 53.9479 16.9784C54.1236 16.8026 54.2267 16.5657 54.235 16.3165L54.3434 15.0526H44.3186Z" fill="white"/>
<path d="M57.4951 11.0233L56.4284 12.7508H40.4704L40.6042 11.2067H55.7953L55.9302 11.0187L57.4951 11.0233Z" fill="white"/>
<path d="M43.2715 8.37788C43.2854 8.34516 43.3086 8.3174 43.3384 8.2983C43.4104 8.22743 43.4902 8.15469 43.576 8.08381C43.8533 7.89175 44.1673 7.75828 44.4974 7.69172C44.7 7.65433 44.905 7.63148 45.1109 7.62368H57.2034L57.9426 10.5932H55.6119L55.0434 9.1067H44.916C44.6361 9.12152 44.3571 9.15351 44.0811 9.20241C43.8385 9.24898 43.6048 9.33539 43.3903 9.45842C43.2021 9.56942 43.0376 9.71668 42.9048 9.89087C42.8256 9.99982 42.7586 10.1176 42.7053 10.2414L42.575 10.5932H40.0241L40.9801 7.62368H43.4768L43.2715 8.37788Z" fill="white"/>
<path d="M10.4365 9.109H1.42766L1.55913 7.57063H9.79183L9.97403 7.30079H11.5482L10.4365 9.109Z" fill="white"/>
<path d="M11.8108 3.96437L9.71588 5.07002L8.84028 5.5328L5.9497 7.06247L5.9043 7.08526L5.90646 7.06247L6.13131 5.48492L6.91394 0L11.8108 3.96437Z" fill="#FFBF35"/>
</svg>
